Gallery: 
 
http://imagedomino.com/?g=227301

Studio
Lethal Hardcore
Starring
Haley Cummings, Mae Meyers, Stevie Shae, Missi Daniels

Stevie and her mom's new boy toy Chris are both after her cash, but if she wants his help running scams, she better be DTF and ready to Kiss Ass! Missi is cute brunette who always fantasized about shoving her tongue up her stepdad's ass and riding his big hard cock! Esperanza is spicy lil' Italian with a bubble butt who goes loca for man ass! When Mae's new Step-dad who works for the Police threatened to have her arrested, she buried her face in his ass and let him know that he has the right to remain horny! Haley is a freaky slut with a prodigious pair of all natural titties who loves giving him jobs and getting her tight lil' cunt pounded

Duration                         : 1h 10mn
Bit rate                         : 1 232 Kbps
Width                            : 592 pixels
Height                           : 336 pixels
Display aspect ratio             : 16:9
Frame rate                       : 29.970 fps
Color space                      : YUV
Chroma subsampling               : 4:2:0
Bit depth                        : 8 bits
Scan type                        : Progressive
Compression mode                 : Lossy
Bits/(Pixel*Frame)               : 0.207
Stream size                      : 623 MiB (89%)

Duration                         : 1h 18mn
Bit rate                         : 1 096 Kbps
Width                            : 592 pixels
Height                           : 336 pixels
Display aspect ratio             : 16:9
Frame rate                       : 29.970 fps
Color space                      : YUV
Chroma subsampling               : 4:2:0
Bit depth                        : 8 bits
Scan type                        : Progressive
Compression mode                 : Lossy
Bits/(Pixel*Frame)               : 0.184
Stream size                      : 613 MiB (88%)